<svg id="visual" viewBox="0 0 960 540" width="960" height="540" xmlns="http://www.w3.org/2000/svg" xmlns:xlink="http://www.w3.org/1999/xlink" version="1.1"><path d="M0 66L240 114L480 82L720 77L960 98L960 0L720 0L480 0L240 0L0 0Z" fill="#007f6e"></path><path d="M0 260L240 303L480 212L720 249L960 244L960 96L720 75L480 80L240 112L0 64Z" fill="#00696c"></path><path d="M0 320L240 357L480 287L720 298L960 303L960 242L720 247L480 210L240 301L0 258Z" fill="#0c5260"></path><path d="M0 401L240 428L480 368L720 395L960 384L960 301L720 296L480 285L240 355L0 318Z" fill="#203c4b"></path><path d="M0 541L240 541L480 541L720 541L960 541L960 382L720 393L480 366L240 426L0 399Z" fill="#222831"></path></svg>